<?xml version="1.0" encoding="UTF-8" standalone="no"?>
<!-- Created with Inkscape (http://www.inkscape.org/) -->

<svg
   xmlns:dc="http://purl.org/dc/elements/1.1/"
   xmlns:cc="http://creativecommons.org/ns#"
   xmlns:rdf="http://www.w3.org/1999/02/22-rdf-syntax-ns#"
   xmlns:svg="http://www.w3.org/2000/svg"
   xmlns="http://www.w3.org/2000/svg"
   xmlns:sodipodi="http://sodipodi.sourceforge.net/DTD/sodipodi-0.dtd"
   xmlns:inkscape="http://www.inkscape.org/namespaces/inkscape"
   width="181.18187"
   height="39.774658"
   viewBox="0 0 47.937702 10.523712"
   version="1.1"
   id="svg1025"
   inkscape:version="0.92.0 r15299"
   sodipodi:docname="fortis bc.svg">
  <defs
     id="defs1019">
    <clipPath
       id="clipPath80"
       clipPathUnits="userSpaceOnUse">
      <path
         inkscape:connector-curvature="0"
         id="path78"
         d="M 0,612 H 261 V 0 H 0 Z" />
    </clipPath>
    <clipPath
       id="clipPath88"
       clipPathUnits="userSpaceOnUse">
      <path
         inkscape:connector-curvature="0"
         id="path86"
         d="M 0,519.48 H 261 V 612 H 0 Z" />
    </clipPath>
  </defs>
  <sodipodi:namedview
     id="base"
     pagecolor="#ffffff"
     bordercolor="#666666"
     borderopacity="1.0"
     inkscape:pageopacity="0.0"
     inkscape:pageshadow="2"
     inkscape:zoom="4.9783035"
     inkscape:cx="90.090931"
     inkscape:cy="2.1312754"
     inkscape:document-units="mm"
     inkscape:current-layer="layer1"
     showgrid="false"
     fit-margin-top="0"
     fit-margin-left="0"
     fit-margin-right="0"
     fit-margin-bottom="0"
     units="px"
     inkscape:window-width="1280"
     inkscape:window-height="744"
     inkscape:window-x="-4"
     inkscape:window-y="-4"
     inkscape:window-maximized="1" />
  <metadata
     id="metadata1022">
    <rdf:RDF>
      <cc:Work
         rdf:about="">
        <dc:format>image/svg+xml</dc:format>
        <dc:type
           rdf:resource="http://purl.org/dc/dcmitype/StillImage" />
        <dc:title></dc:title>
      </cc:Work>
    </rdf:RDF>
  </metadata>
  <g
     inkscape:label="Layer 1"
     inkscape:groupmode="layer"
     id="layer1"
     transform="translate(-43.443203,-168.35567)">
    <g
       id="g1451"
       transform="translate(0.13229249,-0.13229013)">
      <path
         inkscape:connector-curvature="0"
         id="path140"
         style="fill:#004e7d;fill-opacity:1;fill-rule:nonzero;stroke:none;stroke-width:0.35277778"
         d="m 55.769929,175.83222 v -0.23072 h 0.380647 c 0.1778,0 0.213431,-0.0377 0.213431,-0.20249 v -3.29812 c 0,-0.16475 -0.03563,-0.20285 -0.213431,-0.20285 h -0.354541 v -0.23036 h 3.977922 l 0.05186,0.89888 -0.265642,0.0377 -0.119591,-0.48189 c -0.0314,-0.12559 -0.06209,-0.13688 -0.182034,-0.13688 h -2.019652 v 1.43581 h 1.404761 c 0.104422,0 0.145697,-0.0603 0.172508,-0.1644 l 0.04692,-0.15839 0.186973,0.0215 v 1.02447 l -0.186973,0.0169 -0.07832,-0.26916 c -0.02081,-0.0709 -0.06773,-0.1203 -0.16122,-0.1203 h -1.384652 v 1.62701 c 0,0.16475 0.03634,0.20249 0.21343,0.20249 h 0.41275 v 0.23072 z" />
      <path
         inkscape:connector-curvature="0"
         id="path144"
         style="fill:#004e7d;fill-opacity:1;fill-rule:nonzero;stroke:none;stroke-width:0.35277778"
         d="m 62.51384,175.59593 c -1.301044,0 -1.551164,-0.94827 -1.551164,-1.83056 0,-0.8823 0.25012,-1.83057 1.551164,-1.83057 1.301044,0 1.550458,0.94827 1.550458,1.83057 0,0.88229 -0.249414,1.83056 -1.550458,1.83056 m -0.03739,-3.9938 c -1.706739,0 -2.487789,0.98637 -2.487789,2.14807 0,1.16134 0.78105,2.14771 2.487789,2.14771 1.707444,0 2.487788,-0.98637 2.487788,-2.14771 0,-1.1617 -0.780344,-2.14807 -2.487788,-2.14807" />
      <path
         inkscape:connector-curvature="0"
         id="path148"
         style="fill:#004e7d;fill-opacity:1;fill-rule:nonzero;stroke:none;stroke-width:0.35277778"
         d="m 66.585742,173.60189 c 0.165806,0.0275 0.488597,0.0385 0.853017,0.0385 0.885119,0 1.103841,-0.27411 1.103841,-0.89852 0,-0.6029 -0.457905,-0.84385 -1.316919,-0.84385 -0.239536,0 -0.510117,0.005 -0.639939,0.0441 z m -1.448858,2.23026 v -0.23036 h 0.360891 c 0.176742,0 0.213431,-0.0381 0.213431,-0.20285 v -3.29812 c 0,-0.16475 -0.03669,-0.20285 -0.213431,-0.20285 h -0.360891 v -0.23036 h 2.97815 c 0.843844,0 1.364191,0.41663 1.364191,1.10137 0,0.36724 -0.124883,0.69603 -0.634647,0.89888 -0.286808,0.11465 -0.369358,0.12065 -0.369358,0.15346 0,0.066 0.181328,0.0547 0.3429,0.27411 l 0.993775,1.37512 c 0.06315,0.0879 0.145697,0.13124 0.260702,0.13124 h 0.180975 v 0.23036 h -1.258711 l -0.966963,-1.57233 c -0.141112,-0.23001 -0.307623,-0.33443 -0.531637,-0.33443 h -0.910519 v 1.47355 c 0.0046,0.16475 0.04127,0.20285 0.218017,0.20285 h 0.397227 v 0.23036 z" />
      <path
         inkscape:connector-curvature="0"
         id="path152"
         style="fill:#004e7d;fill-opacity:1;fill-rule:nonzero;stroke:none;stroke-width:0.35277778"
         d="m 74.716635,175.83222 v -0.23072 h 0.391936 c 0.176742,0 0.213431,-0.0377 0.213431,-0.20249 v -3.29812 c 0,-0.16475 -0.03669,-0.20285 -0.213431,-0.20285 h -0.391936 v -0.23036 h 2.084917 v 0.23036 h -0.391936 c -0.176389,0 -0.213078,0.0381 -0.213078,0.20285 v 3.29812 c 0,0.16475 0.03669,0.20249 0.213078,0.20249 h 0.391936 v 0.23072 z" />
      <path
         inkscape:connector-curvature="0"
         id="path156"
         style="fill:#004e7d;fill-opacity:1;fill-rule:nonzero;stroke:none;stroke-width:0.35277778"
         d="m 83.59778,175.61251 c 0.152753,0.0162 0.301272,0.0296 0.452261,0.0296 0.474486,0 0.892528,-0.14428 0.892528,-0.71931 0,-0.40605 -0.316089,-0.71085 -0.900289,-0.71085 h -0.4445 z m 0,-1.54411 h 0.304447 c 0.498828,0 0.8128,-0.2286 0.8128,-0.70203 0,-0.39793 -0.313972,-0.58349 -0.8128,-0.58349 H 83.59778 Z m -0.710494,-1.12924 c 0,-0.127 -0.02963,-0.15628 -0.173214,-0.15628 h -0.274461 v -0.1778 h 2.071511 c 0.5334,0 0.964847,0.27058 0.964847,0.75671 0,0.35983 -0.278342,0.60536 -0.651228,0.66851 -0.05151,0.008 -0.07655,0.0127 -0.07655,0.0423 0,0.0215 0.01729,0.0215 0.131939,0.042 0.533047,0.0889 0.823736,0.42756 0.823736,0.86324 0,0.62124 -0.591961,0.84173 -1.158169,0.84173 h -2.106083 v -0.17745 h 0.274461 c 0.14358,0 0.173214,-0.0296 0.173214,-0.15628 z" />
      <path
         inkscape:connector-curvature="0"
         id="path160"
         style="fill:#004e7d;fill-opacity:1;fill-rule:nonzero;stroke:none;stroke-width:0.35277778"
         d="m 89.553092,173.5779 -0.219075,0.0296 c -0.143933,-0.65757 -0.563386,-0.85054 -1.193094,-0.85054 -0.913695,0 -1.314803,0.39793 -1.314803,1.47602 0,0.99413 0.48013,1.3723 1.139472,1.385 0.692856,0.0123 1.178278,-0.28116 1.643944,-0.62124 l -0.07691,0.49319 c -0.19932,0.10759 -0.649464,0.35771 -1.472142,0.38064 -1.149702,0.0321 -2.020005,-0.54151 -2.020005,-1.67922 0,-0.95179 0.55245,-1.63724 2.075039,-1.63724 0.710141,0 1.138061,0.11007 1.387122,0.21131 z" />
      <path
         inkscape:connector-curvature="0"
         id="path164"
         style="fill:#004e7d;fill-opacity:1;fill-rule:nonzero;stroke:none;stroke-width:0.35277778"
         d="m 89.896204,172.86526 v -0.0924 h 0.474486 v 0.0924 h -0.18168 v 0.46496 h -0.110067 v -0.46496 z" />
      <path
         inkscape:connector-curvature="0"
         id="path168"
         style="fill:#004e7d;fill-opacity:1;fill-rule:nonzero;stroke:none;stroke-width:0.35277778"
         d="m 90.672879,172.77272 0.142169,0.39934 0.142875,-0.39934 h 0.158398 v 0.55739 h -0.102659 v -0.44979 l -0.154164,0.44979 h -0.08925 l -0.155223,-0.44979 v 0.44979 h -0.1016 v -0.55739 z" />
      <path
         inkscape:connector-curvature="0"
         id="path172"
         style="fill:#004e7d;fill-opacity:1;fill-rule:nonzero;stroke:none;stroke-width:0.35277778"
         d="m 74.023532,171.67008 h -3.850217 l -0.05151,0.89923 0.265289,0.0377 0.119591,-0.4819 c 0.0314,-0.12594 0.06244,-0.13723 0.181681,-0.13723 h 0.971197 v 3.41101 c 0,0.16475 -0.03598,0.20285 -0.213078,0.20285 h -0.382411 v 0.23036 h 2.0701 v -0.23036 h -0.381353 c -0.177094,0 -0.21343,-0.0381 -0.218722,-0.20285 v -3.41101 h 0.97402 c 0.119591,0 0.150636,0.0113 0.182033,0.13723 l 0.119592,0.4819 0.265289,-0.0377 z" />
      <path
         inkscape:connector-curvature="0"
         id="path176"
         style="fill:#004e7d;fill-opacity:1;fill-rule:nonzero;stroke:none;stroke-width:0.35277778"
         d="m 77.788341,174.41684 c 0.109714,0.96449 0.557036,1.20544 1.374422,1.20544 0.832909,0 1.254831,-0.36089 1.254831,-0.87665 0,-1.09573 -2.79012,-0.0106 -2.79012,-1.8796 0,-0.77223 0.436739,-1.25448 1.624189,-1.25448 0.572206,0 1.004359,0.0769 1.488017,0.23566 v 0.83291 h -0.217664 c -0.01658,-0.1263 -0.0889,-0.44415 -0.265994,-0.6029 -0.151342,-0.13723 -0.452967,-0.2025 -0.884767,-0.2025 -0.911225,0 -1.150408,0.30692 -1.150408,0.66816 0,1.29294 2.716741,0.0991 2.726972,1.91312 0.0053,0.84878 -0.644878,1.45133 -1.753659,1.45133 -0.515408,0 -1.358547,-0.15346 -1.587147,-0.3235 l -0.0889,-1.14477 z" />
      <path
         inkscape:connector-curvature="0"
         id="path180"
         style="fill:#ffde69;fill-opacity:1;fill-rule:nonzero;stroke:none;stroke-width:0.35277778"
         d="m 45.337972,176.23884 c 0.630767,0.41028 3.532364,1.90394 4.607278,2.45463 -0.436739,0.12171 -0.897114,0.18591 -1.372306,0.18591 -2.833158,0 -5.129741,-2.29658 -5.129741,-5.12939 0,-2.83316 2.296583,-5.12974 5.129741,-5.12974 0.633942,0 1.241778,0.11536 1.802342,0.32597 -1.20262,0.99801 -3.256845,2.70757 -4.471106,3.75003 -0.611364,0.52493 -1.583266,1.37301 -1.603375,2.12337 -0.01552,0.56056 0.362656,0.97966 1.037167,1.41922" />
      <path
         inkscape:connector-curvature="0"
         id="path184"
         style="fill:#ffde69;fill-opacity:1;fill-rule:nonzero;stroke:none;stroke-width:0.35277778"
         d="m 46.736913,175.99097 c 0.419453,0.28963 2.742494,1.78894 3.82658,2.48779 -0.09313,0.0392 -0.187325,0.0759 -0.28328,0.10901 -1.645708,-0.9899 -3.173236,-1.8669 -4.063294,-2.41794 -0.900642,-0.55668 -1.010709,-0.99307 -0.992012,-1.2947 0.02928,-0.46637 0.559506,-0.96872 1.89865,-1.90182 1.492956,-1.04034 3.68547,-2.49661 4.716286,-3.17782 0.30092,0.24871 0.572912,0.53128 0.809625,0.84208 -0.572205,0.33373 -1.181452,0.69074 -1.558925,0.91687 -0.877358,0.52458 -1.871486,1.08796 -2.828219,1.6577 -0.462139,0.27552 -0.973314,0.59831 -1.256594,0.77964 -0.797984,0.51294 -0.893586,0.79975 -0.921103,1.02376 -0.05151,0.41028 0.32773,0.75212 0.652286,0.97543" />
      <path
         inkscape:connector-curvature="0"
         id="path188"
         style="fill:#ffde69;fill-opacity:1;fill-rule:nonzero;stroke:none;stroke-width:0.35277778"
         d="m 53.698029,173.9335 c -0.05997,1.72932 -0.976842,3.24062 -2.338564,4.12221 -0.634294,-0.55598 -1.68663,-1.47602 -1.95333,-1.7011 -0.333728,-0.28151 -0.662517,-0.54998 -0.786342,-0.73272 -0.02611,-0.0385 -0.03634,-0.0787 -0.03634,-0.109 0,-0.0536 0.01764,-0.11325 0.08079,-0.15946 0.210256,-0.1524 0.823736,-0.29527 2.094442,-0.62689 0.60713,-0.15839 2.020358,-0.54257 2.939344,-0.79304" />
      <path
         inkscape:connector-curvature="0"
         id="path192"
         style="fill:#ffde69;fill-opacity:1;fill-rule:nonzero;stroke:none;stroke-width:0.35277778"
         d="m 48.458045,176.05945 c 0.179211,0.14005 1.779411,1.44039 2.65183,2.14983 -0.08396,0.0473 -0.169333,0.0931 -0.255763,0.13546 -0.862895,-0.6297 -2.58445,-1.88171 -3.080103,-2.24331 -0.657931,-0.48119 -0.799042,-0.66887 -0.765881,-0.91017 0.02434,-0.17533 0.177095,-0.37712 0.532695,-0.57502 0.528461,-0.29493 0.945444,-0.48825 2.084916,-1.05798 0.984603,-0.49248 2.542823,-1.24919 3.67665,-1.79741 0.150989,0.35843 0.262114,0.73766 0.327731,1.13207 -1.034345,0.3817 -2.522714,0.93027 -3.363736,1.2453 -1.764595,0.66076 -2.342445,0.87983 -2.378075,1.17511 -0.03563,0.2928 0.325614,0.55527 0.569736,0.74612" />
    </g>
  </g>
</svg>
